# xmcd
#
# Track frame offsets:
#	183
#	13200
#	40098
#	53320
#	63380
#	82485
#	94503
#	109103
#	126413
#	141380
#	152815
#	167798
#	184038
#	199448
#	212820
#
# Disc length: 2996 seconds
#
# Revision: 1
# Processed by: cddbd v1.5.1PL0 Copyright (c) Steve Scherf et al.
# Submitted via: CDex 1.50Beta5
#
DISCID=db0bb20f
DTITLE=さまざまなアーティスト - GOLDEN Jazz BEST
DYEAR=1900
DGENRE=Jazz
TTITLE0=A列車で行こう Aオディ
TTITLE1=チークトゥチーク サッチモ・Cべーシー
TTITLE2=霧のサンフランシスコ Tベネット
TTITLE3=教会へ行こう Rクルーニー
TTITLE4=プリーズ・ビー・カインド Pリー
TTITLE5=夜のストレンジャー Fシナトラ
TTITLE6=ムード・インディゴ Pコモ
TTITLE7=ジーズ・フーリッシュ・シングズ NTコール
TTITLE8=it’s only a paper moon Mトーメ
TTITLE9=ファンシー・ミーティング Bクロ他
TTITLE10=スターダスト Sウ”ォーン
TTITLE11=ミッド・ナイト・サン Jクリスティ
TTITLE12=ラウ”ァーマン Bホリディ
TTITLE13=ジャスト・スクィーズ・ミー jスタッフフォード
TTITLE14=カム・サムティ Cマクレーン
EXTD=
EXTT0=
EXTT1=
EXTT2=
EXTT3=
EXTT4=
EXTT5=
EXTT6=
EXTT7=
EXTT8=
EXTT9=
EXTT10=
EXTT11=
EXTT12=
EXTT13=
EXTT14=
PLAYORDER=
